HIERARCHY
ROOT Hips
{
	OFFSET 15.585500 22.159004 44.358299
	CHANNELS 6 Xposition Yposition Zposition Zrotation Xrotation Yrotation
	JOINT Chest
	{
		OFFSET -0.128500 0.160400 6.566002
		CHANNELS 6 Xposition Yposition Zposition Zrotation Xrotation Yrotation
		JOINT Chest2
		{
			OFFSET 0.000000 0.000000 3.554802
			CHANNELS 6 Xposition Yposition Zposition Zrotation Xrotation Yrotation
			JOINT Neck
			{
				OFFSET 0.000000 0.000000 8.267998
				CHANNELS 6 Xposition Yposition Zposition Zrotation Xrotation Yrotation
				JOINT Head
				{
					OFFSET 0.000000 0.000002 2.173897
					CHANNELS 6 Xposition Yposition Zposition Zrotation Xrotation Yrotation
					End Site
					{
						OFFSET 0.000000 0.000000 7.718697
					}
				}
			}
			JOINT LeftCollar
			{
				OFFSET 2.057500 0.117599 5.946301
				CHANNELS 6 Xposition Yposition Zposition Zrotation Xrotation Yrotation
				JOINT LeftShoulder
				{
					OFFSET 4.957699 0.000000 0.000000
					CHANNELS 6 Xposition Yposition Zposition Zrotation Xrotation Yrotation
					JOINT LeftElbow
					{
						OFFSET 0.000000 0.000000 -8.465500
						CHANNELS 6 Xposition Yposition Zposition Zrotation Xrotation Yrotation
						JOINT LeftWrist
						{
							OFFSET 0.000000 -0.000002 -14.594898
							CHANNELS 6 Xposition Yposition Zposition Zrotation Xrotation Yrotation
							End Site
							{
								OFFSET 0.000000 0.000000 -2.173901
							}
						}
					}
				}
			}
			JOINT RightCollar
			{
				OFFSET -3.048500 -0.728800 6.604099
				CHANNELS 6 Xposition Yposition Zposition Zrotation Xrotation Yrotation
				JOINT RightShoulder
				{
					OFFSET -3.710299 0.000000 0.000000
					CHANNELS 6 Xposition Yposition Zposition Zrotation Xrotation Yrotation
					JOINT RightElbow
					{
						OFFSET 0.000000 0.000000 -10.450901
						CHANNELS 6 Xposition Yposition Zposition Zrotation Xrotation Yrotation
						JOINT RightWrist
						{
							OFFSET 0.000000 0.000000 -12.539200
							CHANNELS 6 Xposition Yposition Zposition Zrotation Xrotation Yrotation
							End Site
							{
								OFFSET 0.000000 -0.000002 -2.173901
							}
						}
					}
				}
			}
		}
	}
	JOINT LeftHip
	{
		OFFSET 2.442599 -0.601400 -2.767502
		CHANNELS 6 Xposition Yposition Zposition Zrotation Xrotation Yrotation
		JOINT LeftKnee
		{
			OFFSET 0.000000 -0.000002 -17.033703
			CHANNELS 6 Xposition Yposition Zposition Zrotation Xrotation Yrotation
			JOINT LeftAnkle
			{
				OFFSET 0.000000 -0.000002 -19.318800
				CHANNELS 6 Xposition Yposition Zposition Zrotation Xrotation Yrotation
				End Site
				{
					OFFSET 0.000000 -8.281900 0.000000
				}
			}
		}
	}
	JOINT RightHip
	{
		OFFSET -3.126200 -0.601400 -2.283501
		CHANNELS 6 Xposition Yposition Zposition Zrotation Xrotation Yrotation
		JOINT RightKnee
		{
			OFFSET 0.000000 -0.000002 -16.919401
			CHANNELS 6 Xposition Yposition Zposition Zrotation Xrotation Yrotation
			JOINT RightAnkle
			{
				OFFSET 0.000000 -0.000002 -18.035900
				CHANNELS 6 Xposition Yposition Zposition Zrotation Xrotation Yrotation
				End Site
				{
					OFFSET 0.000000 -9.230099 0.000000
				}
			}
		}
	}
}
MOTION
Frames: 8
Frame Time: 0.041667
23.579502 41.256905 7.430702 3.397182 -15.648120 -0.685471 -0.128501 0.160401 6.566011 -4.124854 19.616928 3.073710 -0.000003 0.000002 3.554810 0.017637 -10.953081 -1.304003 0.000000 -0.000001 8.268006 0.823692 5.639764 0.979726 0.000004 0.000001 2.173898 0.320067 -2.118803 0.296843 2.057505 0.117594 5.946310 -26.878442 -0.292439 14.850848 4.957695 0.000005 -0.000002 63.406961 -33.067534 -52.449835 -0.000002 -0.000001 -8.465499 -134.601254 -165.766232 -151.861538 0.000000 0.000006 -14.594899 -279.630622 -20.491172 -309.986524 -3.048505 -0.728800 6.604100 29.605595 2.654674 -17.533674 -3.710291 0.000001 -0.000004 -15.805947 1.774906 70.623555 0.000002 0.000000 -10.450889 -85.155527 -6.666690 -3.662895 -0.000003 0.000005 -12.539198 464.595314 182.952696 -222.685545 2.442596 -0.601398 -2.767503 128.233305 -9.567228 88.374643 0.000001 -0.000005 -17.033709 -185.896944 51.650437 175.533307 -0.000001 0.000002 -19.318804 -146.328088 117.646279 401.598867 -3.126204 -0.601406 -2.283499 -125.673773 -29.479291 -87.695524 -0.000004 -0.000004 -16.919397 384.054297 -65.010663 -164.699712 -0.000000 0.000002 -18.035896 207.032487 53.338498 -196.318980
23.576900 41.325008 7.396206 3.238509 -15.926768 -0.703643 -0.128500 0.160405 6.566001 -3.987169 19.967662 3.124289 0.000003 -0.000001 3.554803 0.018445 -10.949747 -1.355999 -0.000003 0.000005 8.267994 0.827719 5.854657 1.020118 0.000002 -0.000001 2.173894 0.363394 -2.056991 0.215117 2.057504 0.117597 5.946302 -26.916162 -0.267922 14.953441 4.957694 0.000005 0.000001 63.547069 -32.978622 -52.075264 -0.000002 0.000004 -8.465498 -134.881688 -165.909434 -152.048877 0.000003 -0.000001 -14.594896 -279.513853 -20.490165 -310.417782 -3.048503 -0.728796 6.604097 29.637885 2.796599 -17.594842 -3.710294 -0.000000 0.000002 -15.535282 1.763753 70.370128 -0.000000 0.000003 -10.450889 -85.365343 -6.439403 -3.557890 0.000002 0.000003 -12.539195 464.329647 182.915417 -221.977487 2.442593 -0.601401 -2.767504 128.212035 -9.751926 88.380428 0.000000 -0.000002 -17.033707 -186.002990 51.784080 175.579780 -0.000000 -0.000004 -19.318802 -146.482969 117.558443 401.868414 -3.126202 -0.601405 -2.283505 -125.354913 -29.606090 -87.597306 -0.000003 -0.000003 -16.919395 385.325887 -64.939089 -163.644625 0.000000 0.000003 -18.035894 207.560638 53.355303 -196.647826
23.573999 41.391800 7.362000 3.250393 -16.267135 -0.686597 -0.128499 0.160400 6.566002 -4.019878 20.372378 3.190995 -0.000004 -0.000004 3.554808 0.019268 -10.946030 -1.407996 -0.000001 0.000004 8.267994 0.830905 6.080352 1.060541 -0.000001 -0.000005 2.173895 0.405060 -1.990039 0.129599 2.057502 0.117599 5.946305 -26.950306 -0.249859 15.054130 4.957702 -0.000002 -0.000001 63.670873 -32.889041 -51.708196 -0.000002 0.000003 -8.465494 -135.168528 -166.049890 -152.248018 -0.000002 0.000002 -14.594893 -279.393587 -20.501865 -310.840789 -3.048504 -0.728803 6.604099 30.189825 5.825154 -17.697372 -3.710291 -0.000007 0.000003 -14.850786 -1.040114 69.362408 0.000004 -0.000000 -10.450889 -85.590105 -6.218015 -3.452149 0.000003 0.000003 -12.539192 464.066329 182.877236 -221.308661 2.442594 -0.601401 -2.767503 128.017566 -9.968133 88.332466 0.000001 0.000001 -17.033710 -186.109391 51.915783 175.627823 -0.000002 -0.000001 -19.318804 -146.643315 117.470142 402.142414 -3.126204 -0.601407 -2.283499 -125.177314 -29.769998 -87.450962 -0.000004 -0.000007 -16.919394 392.833221 -63.655963 -157.573038 -0.000001 -0.000000 -18.035896 211.595968 52.898118 -197.669554
23.570900 41.456802 7.328297 3.264297 -16.599064 -0.669804 -0.128497 0.160407 6.566006 -4.054253 20.762404 3.257609 0.000004 0.000000 3.554807 0.020046 -10.941713 -1.459319 -0.000001 0.000008 8.268003 0.862317 6.323863 1.141625 0.000001 -0.000003 2.173893 0.415254 -1.924376 -0.003346 2.057508 0.117605 5.946308 -26.979828 -0.239388 15.153458 4.957700 0.000004 0.000004 63.777492 -32.798196 -51.349519 -0.000003 0.000003 -8.465506 -135.459768 -166.187122 -152.458401 -0.000002 0.000002 -14.594896 -279.270808 -20.523880 -311.257021 -3.048501 -0.728791 6.604101 30.188504 5.779018 -17.748243 -3.710294 0.000007 -0.000003 -14.549457 -0.837654 69.161628 0.000002 -0.000005 -10.450889 -85.830213 -6.003439 -3.346055 0.000003 0.000004 -12.539195 463.810880 182.842211 -220.666774 2.442596 -0.601397 -2.767497 127.823985 -10.180654 88.288685 0.000003 -0.000003 -17.033710 -186.214521 52.045683 175.676140 -0.000002 -0.000002 -19.318804 -146.807021 117.382005 402.417233 -3.126198 -0.601402 -2.283494 -125.006395 -29.924066 -87.313006 -0.000005 -0.000005 -16.919399 393.289724 -63.674520 -157.196653 0.000001 -0.000001 -18.035894 211.690635 52.963356 -197.913255
23.567703 41.519699 7.295200 3.279704 -16.922463 -0.653672 -0.128499 0.160400 6.566001 -4.089677 21.136097 3.323456 -0.000001 -0.000004 3.554807 -0.220277 -10.949191 -1.377667 -0.000001 -0.000000 8.268000 1.099591 6.579546 0.972158 0.000001 0.000004 2.173908 0.455564 -1.863822 -0.070541 2.057505 0.117601 5.946306 -26.768184 -0.140779 15.102165 4.957687 0.000002 0.000001 63.865622 -32.705398 -51.000855 -0.000002 0.000000 -8.465492 -135.752933 -166.320775 -152.678893 -0.000001 0.000003 -14.594891 -279.162672 -20.534532 -311.665903 -3.048502 -0.728796 6.604102 30.439312 5.662104 -17.956298 -3.710291 0.000001 -0.000005 -14.222353 -0.618519 68.951463 0.000000 -0.000006 -10.450889 -86.086290 -5.796404 -3.240443 -0.000001 0.000006 -12.539197 463.568381 182.813988 -220.052234 2.442596 -0.601393 -2.767502 127.632671 -10.388098 88.247123 0.000002 -0.000003 -17.033709 -186.317629 52.173390 175.723432 -0.000002 -0.000001 -19.318800 -146.971082 117.294852 402.688501 -3.126198 -0.601400 -2.283498 -124.842689 -30.069092 -87.183048 -0.000002 -0.000005 -16.919394 393.742483 -63.687484 -156.830268 0.000002 -0.000002 -18.035896 211.783921 53.025115 -198.156724
23.564398 41.580101 7.262894 3.296846 -17.237485 -0.638974 -0.128501 0.160403 6.566006 -4.126513 21.492336 3.388541 0.000002 -0.000001 3.554803 -0.240446 -10.943730 -1.415765 -0.000003 -0.000004 8.267996 1.103481 6.829546 0.968952 0.000003 0.000003 2.173903 0.617289 -1.766179 -0.071936 2.057504 0.117597 5.946307 -26.765712 -0.140533 15.189497 4.957688 0.000001 0.000003 63.934266 -32.609748 -50.663536 0.000005 0.000003 -8.465498 -136.044200 -166.450959 -152.907773 -0.000003 0.000004 -14.594898 -279.031533 -20.584911 -312.073092 -3.048503 -0.728806 6.604100 30.459003 5.616619 -18.005678 -3.710297 -0.000003 0.000003 -13.870749 -0.382633 68.729742 0.000002 0.000005 -10.450887 -86.358740 -5.597629 -3.136149 0.000002 0.000001 -12.539193 463.100431 182.667194 -219.564682 2.442588 -0.601397 -2.767497 127.444390 -10.587742 88.205295 0.000000 0.000001 -17.033707 -186.418812 52.298328 175.768539 -0.000002 -0.000005 -19.318802 -147.133831 117.209311 402.953731 -3.126206 -0.601400 -2.283498 -124.686893 -30.206867 -87.060398 -0.000004 -0.000002 -16.919392 394.187593 -63.695045 -156.476683 0.000002 0.000000 -18.035896 211.875733 53.083236 -198.399032
23.561199 41.637505 7.231400 3.316088 -17.544114 -0.626626 -0.128497 0.160403 6.566001 -4.165281 21.829853 3.453285 -0.000002 0.000000 3.554806 -0.255692 -10.936967 -1.454007 0.000002 0.000004 8.267994 1.142340 7.096881 1.026423 0.000003 -0.000001 2.173895 0.622322 -1.677642 -0.205398 2.057508 0.117601 5.946305 -26.761842 -0.151305 15.280950 4.957695 0.000004 0.000007 63.982924 -32.510112 -50.339280 -0.000003 0.000000 -8.465497 -136.327311 -166.578519 -153.140942 -0.000005 0.000005 -14.594896 -278.917933 -20.626411 -312.475035 -3.048503 -0.728798 6.604098 30.473131 5.577167 -18.043225 -3.710285 0.000001 0.000003 -13.496327 -0.130607 68.495090 0.000001 0.000001 -10.450889 -86.647869 -5.407436 -3.034043 -0.000003 0.000003 -12.539191 462.901318 182.667549 -218.962259 2.442595 -0.601401 -2.767501 127.259579 -10.777093 88.161623 0.000001 -0.000009 -17.033707 -186.518369 52.419779 175.810558 -0.000002 -0.000001 -19.318796 -147.293303 117.126147 403.210819 -3.126198 -0.601405 -2.283499 -124.539948 -30.339055 -86.944633 -0.000004 -0.000007 -16.919399 394.621064 -63.697374 -156.138562 0.000001 -0.000002 -18.035898 211.965427 53.137495 -198.638212
23.558098 41.691803 7.201103 3.337744 -17.842297 -0.617357 -0.128497 0.160398 6.566009 -4.206616 22.148224 3.517842 -0.000001 -0.000007 3.554805 -0.113613 -10.954662 -1.261183 -0.000000 0.000002 8.267996 1.037579 7.383526 0.863613 0.000002 0.000005 2.173899 0.201188 -1.423831 0.432270 2.057507 0.117608 5.946301 -26.906521 -0.061879 15.208012 4.957686 0.000001 0.000000 64.011706 -32.405580 -50.029032 -0.000002 -0.000003 -8.465492 -136.595574 -166.704605 -153.374739 0.000000 -0.000000 -14.594900 -278.816026 -20.671287 -312.873508 -3.048501 -0.728799 6.604100 30.349710 5.462049 -18.255390 -3.710296 -0.000003 -0.000004 -13.101884 0.134539 68.247599 0.000003 0.000000 -10.450891 -86.950883 -5.225569 -2.934258 0.000000 0.000004 -12.539193 462.775424 182.553840 -218.338431 2.442595 -0.601398 -2.767503 127.078634 -10.953078 88.114324 0.000000 0.000001 -17.033709 -186.617461 52.536589 175.848944 -0.000003 0.000001 -19.318802 -147.448198 117.046042 403.458455 -3.126200 -0.601398 -2.283499 -124.402579 -30.467876 -86.834729 -0.000004 -0.000006 -16.919395 395.038607 -63.694943 -155.818526 0.000000 -0.000005 -18.035896 212.052662 53.187373 -198.872569
